<svg width="30" height="18" viewBox="0 0 30 18" fill="none" xmlns="http://www.w3.org/2000/svg">
<path d="M15.7569 2.54536C14.9808 3.17757 14.3846 4.00276 14.0281 4.93815C13.7117 4.79879 13.3796 4.6984 13.0391 4.63918C12.1721 4.4908 11.2806 4.60783 10.4813 4.97492C10.2784 5.09457 10.0863 5.23188 9.90746 5.38523C9.18718 5.64214 8.52755 6.0447 7.96971 6.56781C7.41187 7.09091 6.96779 7.72333 6.66516 8.42564C6.36253 9.12795 6.20785 9.88507 6.21075 10.6498C6.21365 11.4145 6.37408 12.1705 6.68203 12.8704C5.68008 12.2448 4.8539 11.3743 4.28132 10.3411C3.70873 9.30785 3.4086 8.14588 3.40918 6.96461C3.40918 3.11822 6.52739 3.09937e-06 10.3738 3.09937e-06C11.4036 -0.000969298 12.4207 0.22688 13.3517 0.667081C14.2827 1.10728 15.1042 1.74883 15.7569 2.54536Z" fill="#66C1FF"/>
<path d="M12.4201 13.6234C11.4654 13.9158 10.459 13.9998 9.46896 13.8699C8.47893 13.7401 7.52831 13.3992 6.68128 12.8705C6.37333 12.1705 6.2129 11.4146 6.21 10.6498C6.2071 9.8851 6.36179 9.12797 6.66441 8.42567C6.96704 7.72336 7.41112 7.09094 7.96896 6.56783C8.5268 6.04473 9.18643 5.64217 9.90671 5.38525C9.57073 5.66874 9.29517 6.01687 9.0964 6.40897C8.32355 7.95123 8.86376 10.099 10.4806 11.7612C11.0818 12.4274 11.73 13.0497 12.4201 13.6234Z" fill="#F7F01B"/>
<path d="M14.7932 15.3021C14.1168 15.7386 13.3537 16.0231 12.5567 16.1362C11.7596 16.2492 10.9476 16.1881 10.1764 15.9569C9.40532 15.7258 8.69351 15.3301 8.09008 14.7973C7.48665 14.2644 7.00596 13.6071 6.68115 12.8705C7.52818 13.3992 8.4788 13.7401 9.46883 13.87C10.4589 13.9998 11.4652 13.9158 12.42 13.6234C12.5666 13.7453 12.718 13.8672 12.8743 13.989C13.4863 14.4657 14.1272 14.9043 14.7932 15.3021Z" fill="#F7C41D"/>
<path d="M16.4515 3.56191C15.5445 3.81759 14.7128 4.28924 14.0278 4.93648C14.3843 4.0011 14.9806 3.17591 15.7567 2.5437C16.0179 2.86197 16.2504 3.2027 16.4515 3.56191Z" fill="#471D99"/>
<path d="M23.7235 10.6066C23.9699 9.61181 23.9509 8.56979 23.6685 7.58464C23.386 6.59949 22.85 5.70572 22.1139 4.99263C21.3778 4.27954 20.4675 3.77212 19.4739 3.52105C18.4802 3.26999 17.4381 3.28408 16.4517 3.56192C16.2504 3.2033 16.0179 2.86315 15.7568 2.54542C16.8543 1.65193 18.2453 1.19925 19.6585 1.27564C21.0716 1.35203 22.4057 1.95203 23.4005 2.95862C24.3953 3.96522 24.9795 5.30625 25.0392 6.72021C25.0989 8.13418 24.6299 9.51969 23.7235 10.6066Z" fill="#BE1BF7"/>
<path d="M23.8953 9.19418C23.8957 9.6702 23.838 10.1445 23.7235 10.6065C23.1897 11.2476 22.5213 11.7632 21.7658 12.1169C21.0103 12.4705 20.1862 12.6534 19.352 12.6526C19.7472 12.2612 20.096 11.8801 20.4025 11.5203C21.8994 9.88249 22.3884 7.82888 21.6338 6.35947C21.4658 6.03266 21.1221 5.51136 20.4025 5.05981C19.7003 4.67591 18.9026 4.50165 18.1042 4.55775C17.725 4.58639 17.3518 4.66853 16.9956 4.80174C16.8555 4.37159 16.6733 3.9563 16.4517 3.56187C17.3219 3.31681 18.2372 3.27658 19.1256 3.44435C20.014 3.61213 20.8515 3.98334 21.5725 4.5289C22.2935 5.07447 22.8784 5.77957 23.2813 6.58896C23.6842 7.39835 23.8943 8.29004 23.895 9.19418H23.8953Z" fill="#D46EFF"/>
<path d="M16.9958 4.80167C16.3844 5.03251 15.8325 5.39747 15.3807 5.86971C14.9918 5.47697 14.5323 5.16113 14.0264 4.93878C14.7114 4.29153 15.543 3.81989 16.4501 3.56421C16.6721 3.9578 16.8549 4.37228 16.9958 4.80167Z" fill="#A171FF"/>
<path d="M23.7234 10.6066C23.3476 12.112 22.3899 13.4068 21.0605 14.2069C19.731 15.007 18.1385 15.247 16.6323 14.8743C17.2128 14.4871 17.7705 14.067 18.3028 13.6158C18.6842 13.2925 19.0337 12.9698 19.3526 12.6536C20.1867 12.6542 21.0108 12.4711 21.7662 12.1173C22.5216 11.7635 23.1898 11.2477 23.7234 10.6066Z" fill="#F7C41D"/>
<path d="M18.2668 6.95773C18.0172 6.7037 17.6952 6.53302 17.3449 6.46904C16.9946 6.40506 16.633 6.45092 16.3098 6.60034C15.9754 6.79931 15.8249 7.03746 15.7572 7.17285C15.4479 7.78866 15.6644 8.64639 16.3098 9.30996C16.8709 9.9321 17.5325 10.4557 18.2668 10.8591C19.0276 10.4347 19.7065 9.87782 20.2716 9.21477C20.8689 8.56185 21.0644 7.74089 20.763 7.15292C20.6497 6.93829 20.4798 6.75883 20.2716 6.63402C19.9912 6.4805 19.6726 6.41084 19.3537 6.43333C18.7417 6.48007 18.3603 6.85876 18.2668 6.95773Z" fill="#F71C50"/>
<path d="M0.0952148 18.6869V17.3309H0.774596V17.4639H0.228892V17.8979H0.292466C0.461538 17.8979 0.584333 17.9128 0.660851 17.9426C0.733951 17.9701 0.796903 18.0192 0.841263 18.0835C0.891745 18.1575 0.914342 18.2469 0.905028 18.336C0.895714 18.425 0.855095 18.5079 0.790404 18.5698C0.713199 18.6477 0.60541 18.6867 0.467036 18.6869H0.0952148ZM0.228892 18.034V18.554H0.395902C0.469593 18.5577 0.543348 18.5478 0.613428 18.5247C0.658103 18.5065 0.696368 18.4754 0.723393 18.4354C0.752742 18.391 0.766931 18.3384 0.763833 18.2853C0.760735 18.2322 0.740519 18.1815 0.706211 18.1409C0.668199 18.0977 0.617599 18.0676 0.561538 18.0546C0.476854 18.0385 0.390668 18.0316 0.304493 18.034H0.228892Z" fill="black"/>
<path d="M2.40709 18.6869H2.25966L1.81018 17.6395L1.35348 18.6869H1.20605L1.79609 17.3309H1.8253L2.40709 18.6869Z" fill="black"/>
<path d="M3.32091 17.3309L3.95184 18.6869H3.80545L3.59204 18.2402H3.00785L2.79651 18.6869H2.646L3.28655 17.3309H3.32091ZM3.30373 17.6192L3.07143 18.11H3.535L3.30373 17.6192Z" fill="black"/>
<path d="M4.4292 18.6869H4.29346V17.3309H4.97284V17.4639H4.4292V18.6869Z" fill="black"/>
<path d="M5.9453 17.297C6.0407 17.2947 6.13558 17.3117 6.22418 17.3472C6.31278 17.3826 6.39327 17.4357 6.46077 17.5031C6.56112 17.6027 6.62958 17.7299 6.65744 17.8686C6.68529 18.0072 6.67129 18.151 6.61721 18.2816C6.56312 18.4122 6.4714 18.5238 6.35372 18.6022C6.23603 18.6806 6.09769 18.7222 5.9563 18.7217C5.86184 18.7238 5.76795 18.7067 5.68037 18.6712C5.59279 18.6357 5.51339 18.5828 5.44702 18.5155C5.38025 18.4509 5.3275 18.3732 5.29202 18.2873C5.25655 18.2014 5.23913 18.1091 5.24084 18.0162C5.23993 17.8893 5.27253 17.7643 5.33534 17.654C5.39603 17.5456 5.48455 17.4553 5.59178 17.3926C5.69901 17.3298 5.82106 17.2968 5.9453 17.297ZM5.95149 17.4289C5.85078 17.4299 5.75207 17.4572 5.66511 17.508C5.57814 17.5588 5.50594 17.6314 5.45561 17.7186C5.4047 17.8088 5.37862 17.9109 5.38001 18.0145C5.37924 18.09 5.39346 18.1649 5.42184 18.2349C5.45022 18.3048 5.4922 18.3685 5.54536 18.4221C5.59851 18.4758 5.66177 18.5183 5.73149 18.5473C5.8012 18.5763 5.87598 18.5912 5.95149 18.5911C6.0539 18.5917 6.15466 18.5653 6.24359 18.5145C6.33133 18.4651 6.40384 18.3926 6.45321 18.3049C6.50465 18.2141 6.53098 18.1112 6.5295 18.0069C6.53092 17.9046 6.50494 17.8037 6.45424 17.7148C6.40359 17.6274 6.33036 17.5552 6.24221 17.5059C6.15388 17.4548 6.05352 17.4282 5.95149 17.4289Z" fill="black"/>
<path d="M6.93799 17.4639V17.3309H7.6806V17.4639H7.37854V18.6869H7.24108V17.4639H6.93799Z" fill="black"/>
<path d="M8.01172 17.331H8.27907C8.36351 17.3272 8.44786 17.3403 8.52718 17.3695C8.58388 17.3937 8.63183 17.4347 8.66464 17.487C8.69797 17.5396 8.71539 17.6007 8.71481 17.6629C8.71538 17.7208 8.70018 17.7777 8.67083 17.8275C8.63959 17.8787 8.59489 17.9203 8.54162 17.9478C8.60049 17.9657 8.65559 17.9942 8.70416 18.032C8.74181 18.0642 8.77206 18.1042 8.79282 18.1492C8.81419 18.1958 8.82498 18.2466 8.82443 18.298C8.8251 18.3496 8.81482 18.4008 8.79427 18.4482C8.77372 18.4956 8.74336 18.5381 8.70519 18.5729C8.62546 18.6483 8.51871 18.6859 8.38491 18.6859H8.01172V17.331ZM8.14436 17.464V17.898H8.22168C8.29198 17.9014 8.36232 17.8925 8.42959 17.8719C8.47237 17.8555 8.50916 17.8265 8.53509 17.7887C8.5606 17.7519 8.57416 17.7081 8.57392 17.6633C8.57523 17.6355 8.57003 17.6079 8.55876 17.5825C8.54748 17.5572 8.53043 17.5348 8.50897 17.5172C8.46567 17.4829 8.39625 17.4643 8.30278 17.4643L8.14436 17.464ZM8.14436 18.0344V18.5543H8.31206C8.38598 18.5582 8.45997 18.5483 8.53028 18.5251C8.57548 18.5066 8.61413 18.475 8.64127 18.4344C8.67128 18.3912 8.68602 18.3392 8.68316 18.2867C8.6803 18.2341 8.65999 18.1841 8.62546 18.1444C8.58219 18.0975 8.52537 18.0653 8.46292 18.0523C8.3835 18.0386 8.30291 18.0331 8.22237 18.0358L8.14436 18.0344Z" fill="black"/>
<path d="M9.86976 17.297C9.96518 17.2946 10.0601 17.3116 10.1487 17.3471C10.2373 17.3825 10.3178 17.4356 10.3852 17.5032C10.4856 17.6028 10.554 17.73 10.5819 17.8686C10.6098 18.0072 10.5957 18.151 10.5417 18.2816C10.4876 18.4123 10.3959 18.5239 10.2782 18.6022C10.1605 18.6806 10.0222 18.7222 9.88076 18.7217C9.78636 18.7238 9.69251 18.7067 9.60499 18.6712C9.51747 18.6357 9.43813 18.5828 9.37183 18.5155C9.30506 18.4509 9.2523 18.3732 9.21683 18.2873C9.18136 18.2014 9.16394 18.1091 9.16564 18.0162C9.16474 17.8893 9.19733 17.7643 9.26014 17.654C9.32066 17.545 9.40977 17.4546 9.51788 17.3925C9.62456 17.3299 9.74605 17.2969 9.86976 17.297ZM9.87595 17.4289C9.77545 17.4301 9.67699 17.4574 9.59027 17.5082C9.50355 17.559 9.43158 17.6315 9.38145 17.7186C9.33054 17.8088 9.30445 17.9109 9.30585 18.0145C9.30498 18.0899 9.31909 18.1647 9.34736 18.2347C9.37562 18.3046 9.41748 18.3682 9.4705 18.4218C9.52353 18.4755 9.58667 18.5181 9.65626 18.5471C9.72586 18.5762 9.80053 18.5911 9.87595 18.5911C9.97836 18.5917 10.0791 18.5653 10.168 18.5145C10.2558 18.4651 10.3283 18.3926 10.3777 18.3049C10.4282 18.2149 10.4542 18.1132 10.4529 18.01C10.4544 17.9077 10.4284 17.8068 10.3777 17.7179C10.327 17.6305 10.2538 17.5584 10.1656 17.509C10.0779 17.457 9.97792 17.4294 9.87595 17.4289Z" fill="black"/>
<path d="M10.9966 17.331H11.2667C11.3716 17.3272 11.4766 17.334 11.5801 17.3512C11.6546 17.3686 11.7213 17.4099 11.7701 17.4688C11.8175 17.5335 11.8432 17.6116 11.8435 17.6919C11.8439 17.7721 11.8188 17.8504 11.7718 17.9155C11.7208 17.9761 11.651 18.0178 11.5736 18.0341C11.46 18.0527 11.3449 18.06 11.2299 18.0561H11.1334V18.6866H10.9966V17.331ZM11.1323 17.464V17.9238L11.3615 17.9265C11.4304 17.9299 11.4993 17.9214 11.5653 17.9014C11.6076 17.8858 11.6437 17.857 11.6684 17.8193C11.6931 17.7818 11.7061 17.7377 11.7055 17.6928C11.7059 17.6486 11.6929 17.6053 11.6684 17.5684C11.6453 17.5319 11.6113 17.5036 11.5712 17.4877C11.5071 17.4686 11.4403 17.4606 11.3736 17.464H11.1323Z" fill="black"/>
<path d="M13.3127 18.6869H13.1718V17.6474L12.2783 18.6869H12.248V17.3309H12.3834V18.3887L13.2831 17.3309H13.3133L13.3127 18.6869Z" fill="black"/>
<path d="M13.6401 17.4639V17.3309H14.3827V17.4639H14.0807V18.6869H13.9432V17.4639H13.6401Z" fill="black"/>
<path d="M14.7114 17.3309H15.4884V17.4639H14.8454V17.8887H15.4815V18.0213H14.8454V18.5543H15.4815V18.6869H14.7114V17.3309Z" fill="black"/>
<path d="M16.9522 18.6869H16.8041L16.3574 17.6395L15.9007 18.6869H15.7529L16.343 17.3309H16.3725L16.9522 18.6869Z" fill="black"/>
<path d="M17.3115 17.3309H17.4469V17.9127H17.5445C17.6725 17.9089 17.8006 17.9175 17.927 17.9385C18.0018 17.9539 18.0683 17.9961 18.1143 18.0571C18.1642 18.127 18.1891 18.2117 18.1851 18.2976C18.1885 18.3823 18.1644 18.4659 18.1163 18.5357C18.0739 18.5961 18.0116 18.6398 17.9404 18.6591C17.8689 18.6787 17.7497 18.6883 17.5816 18.6883H17.3119L17.3115 17.3309ZM17.4469 18.5567H17.5916C17.7438 18.5567 17.8435 18.5495 17.8899 18.5351C17.9349 18.5215 17.9739 18.493 18.0005 18.4543C18.0294 18.4093 18.0436 18.3565 18.0414 18.3031C18.044 18.2438 18.0258 18.1854 17.9899 18.1381C17.9572 18.0968 17.9103 18.0691 17.8583 18.0605C17.7597 18.0483 17.6603 18.0434 17.561 18.0461H17.4469V18.5567Z" fill="black"/>
<path d="M18.5864 17.3309H18.7218V17.8997H19.4122V17.3309H19.5476V18.6869H19.4122V18.034H18.7218V18.6869H18.5864V17.3309Z" fill="black"/>
<path d="M20.0088 17.3309H20.1442V17.9127H20.2405C20.3683 17.9089 20.4961 17.9175 20.6222 17.9385C20.6969 17.9539 20.7634 17.9961 20.8092 18.0571C20.8593 18.1269 20.8842 18.2117 20.88 18.2976C20.8834 18.3823 20.8593 18.4659 20.8112 18.5357C20.769 18.5962 20.7068 18.6399 20.6356 18.6591C20.5646 18.6786 20.4452 18.6883 20.2772 18.6883H20.0078L20.0088 17.3309ZM20.1442 18.5567H20.2886C20.4409 18.5567 20.5401 18.5495 20.5862 18.5351C20.6312 18.5215 20.6702 18.493 20.6968 18.4543C20.7257 18.4093 20.7399 18.3565 20.7377 18.3031C20.7403 18.2438 20.722 18.1854 20.6862 18.1381C20.6536 18.0968 20.6068 18.0691 20.5549 18.0605C20.4565 18.0483 20.3574 18.0434 20.2583 18.0461H20.1442V18.5567ZM21.0408 17.3316H21.1783V18.6876H21.0408V17.3316Z" fill="black"/>
<path d="M22.7054 18.687H22.5642V17.6475L21.6707 18.687H21.6401V17.331H21.7755V18.3887L22.6752 17.331H22.7058L22.7054 18.687ZM21.8463 17.0066H21.968C21.9884 17.0382 22.0175 17.0632 22.0518 17.0788C22.0915 17.0955 22.1342 17.1036 22.1773 17.1025C22.2179 17.1041 22.2585 17.0969 22.2962 17.0815C22.3303 17.0638 22.3597 17.0381 22.3817 17.0066H22.4999C22.4843 17.0639 22.4475 17.113 22.3968 17.144C22.3307 17.184 22.2541 17.2034 22.1769 17.1997C22.0994 17.203 22.0226 17.184 21.9556 17.1451C21.903 17.1144 21.8639 17.0649 21.8463 17.0066Z" fill="black"/>
<path d="M24.4106 17.3309H24.5463V17.5045H24.6494C24.8535 17.5045 24.9951 17.5442 25.0742 17.6237C25.1125 17.6608 25.1428 17.7053 25.1632 17.7545C25.1837 17.8038 25.1938 17.8567 25.1931 17.91C25.194 18.0099 25.1572 18.1065 25.09 18.1804C25.0212 18.2595 24.8889 18.299 24.6931 18.299H24.5463V18.6869H24.4106V18.299H24.2649C24.1783 18.301 24.0919 18.291 24.0082 18.2691C23.9376 18.2467 23.8765 18.2017 23.8343 18.1409C23.7856 18.0739 23.7602 17.9928 23.7618 17.91C23.7612 17.8568 23.7713 17.8041 23.7916 17.7549C23.812 17.7058 23.842 17.6613 23.88 17.6241C23.9588 17.5443 24.1013 17.5045 24.3075 17.5045H24.4106V17.3309ZM24.4106 17.6354H24.2584C24.147 17.6354 24.0597 17.6583 23.9965 17.7041C23.9654 17.7274 23.9406 17.7579 23.9241 17.793C23.9076 17.8281 23.9 17.8668 23.902 17.9055C23.901 17.9401 23.9071 17.9746 23.92 18.0068C23.9329 18.0389 23.9523 18.0681 23.9769 18.0924C24.0266 18.1424 24.1011 18.1674 24.2003 18.1674H24.269H24.4109L24.4106 17.6354ZM24.5463 17.6354V18.168H24.6889H24.7618C24.8011 18.1707 24.8406 18.1656 24.8779 18.1528C24.9152 18.1401 24.9495 18.12 24.979 18.0938C25.0037 18.0695 25.0232 18.0404 25.0361 18.0082C25.0491 17.976 25.0553 17.9415 25.0542 17.9069C25.0556 17.8692 25.0484 17.8317 25.033 17.7973C25.0176 17.7628 24.9946 17.7324 24.9656 17.7083C24.9065 17.659 24.8173 17.6344 24.6982 17.6344L24.5463 17.6354Z" fill="black"/>
<path d="M26.244 17.297C26.3394 17.2946 26.4343 17.3116 26.5229 17.3471C26.6115 17.3825 26.692 17.4356 26.7595 17.5032C26.8596 17.6028 26.9279 17.73 26.9556 17.8686C26.9833 18.0072 26.9692 18.1509 26.915 18.2814C26.8609 18.4119 26.7692 18.5234 26.6515 18.6017C26.5339 18.68 26.3956 18.7215 26.2543 18.721C26.1599 18.7232 26.066 18.706 25.9785 18.6705C25.891 18.6351 25.8117 18.5821 25.7454 18.5148C25.6786 18.4502 25.6258 18.3725 25.5904 18.2866C25.5549 18.2007 25.5375 18.1084 25.5392 18.0155C25.5382 17.8886 25.5708 17.7636 25.6337 17.6533C25.6942 17.5443 25.7833 17.4539 25.8914 17.3918C25.9984 17.3293 26.1201 17.2966 26.244 17.297ZM26.2498 17.4289C26.1492 17.4299 26.0505 17.4571 25.9636 17.5079C25.8766 17.5587 25.8045 17.6314 25.7543 17.7186C25.7033 17.8088 25.6771 17.9109 25.6784 18.0145C25.6776 18.09 25.6918 18.1649 25.7202 18.2349C25.7486 18.3049 25.7905 18.3685 25.8437 18.4221C25.8968 18.4758 25.9601 18.5183 26.0298 18.5473C26.0995 18.5763 26.1743 18.5912 26.2498 18.5911C26.3522 18.5918 26.453 18.5653 26.5419 18.5145C26.6297 18.4651 26.7022 18.3926 26.7515 18.3049C26.8021 18.2149 26.8281 18.1132 26.8268 18.01C26.8282 17.9077 26.8022 17.8068 26.7515 17.7179C26.701 17.6305 26.6279 17.5584 26.5399 17.509C26.452 17.457 26.3519 17.4293 26.2498 17.4289Z" fill="black"/>
<path d="M27.3691 17.3309H27.5049V17.8997H28.1949V17.3309H28.3307V18.6869H28.1949V18.034H27.5049V18.6869H27.3691V17.3309Z" fill="black"/>
<path d="M28.789 18.8897H28.6553V18.5605H28.7652L29.2975 17.3309H29.3443L29.9065 18.5605H30.012V18.8897H29.8783V18.6869H28.789V18.8897ZM28.9185 18.5605H29.746L29.3216 17.61L28.9185 18.5605Z" fill="black"/>
</svg>
